<svg xmlns="http://www.w3.org/2000/svg" viewBox="0 0 491.77 576"><g id="Camada_2" data-name="Camada 2"><g id="Camada_1-2" data-name="Camada 1"><path d="M263.57,4.86,475.22,131.92a34.32,34.32,0,0,1,16.55,29.26l-.14,253.89a34.27,34.27,0,0,1-16.58,29.24L263.27,571.14a34,34,0,0,1-35.07,0L16.55,444.07A34.3,34.3,0,0,1,0,414.81L.14,160.92a34.28,34.28,0,0,1,16.58-29.25L228.5,4.84a34.12,34.12,0,0,1,35.07,0Zm-6.1,556.59L469.25,434.62a23,23,0,0,0,11.09-19.55l.13-253.9A22.91,22.91,0,0,0,469.4,141.6l-211.64-127a23.2,23.2,0,0,0-23.46,0L22.52,141.37a22.89,22.89,0,0,0-11.09,19.55l-.14,253.89a22.92,22.92,0,0,0,11.08,19.57L234,561.44a22.76,22.76,0,0,0,23.46,0Z"/><rect x="215.85" y="449.31" width="62.52" height="11.5"/><rect x="215.86" y="426.2" width="62.52" height="11.5"/><rect x="215.88" y="403.1" width="62.52" height="11.5"/><polygon points="247.52 161.28 221.45 186.43 199.18 164.91 191.19 173.18 221.44 202.41 247.51 177.26 274.45 203.3 305.39 173.46 297.42 165.18 274.46 187.32 247.52 161.28"/><polygon points="142.46 163.56 134.32 171.68 216.32 253.76 215.89 377.2 227.39 377.24 227.83 249.02 142.46 163.56"/><polygon points="349.44 165.83 266.87 248.32 266.8 377.25 278.3 377.25 278.36 253.09 357.57 173.96 349.44 165.83"/></g></g></svg>