<?xml version="1.0" encoding="utf-8"?>
<!-- Generator: Adobe Illustrator 24.2.0, SVG Export Plug-In . SVG Version: 6.00 Build 0)  -->
<svg version="1.1" id="Camada_1" xmlns="http://www.w3.org/2000/svg" xmlns:xlink="http://www.w3.org/1999/xlink" x="0px" y="0px"
	 viewBox="0 0 800 800" style="enable-background:new 0 0 800 800;" xml:space="preserve">
<style type="text/css">
	.st0{fill:url(#SVGID_1_);}
	.st1{fill:#FFFFFF;}
</style>
<rect y="1" width="800" height="800"/>
<g>
	<linearGradient id="SVGID_1_" gradientUnits="userSpaceOnUse" x1="400" y1="650" x2="400" y2="150">
		<stop  offset="0" style="stop-color:#A77AA5"/>
		<stop  offset="0.5" style="stop-color:#E76685"/>
		<stop  offset="1" style="stop-color:#F29E32"/>
	</linearGradient>
	<path class="st0" d="M413,153.6L600.4,266c7.6,4.6,12.2,12.8,12.2,21.6v224.8c0,8.9-4.6,17.1-12.2,21.6L413,646.4
		c-8,4.8-17.9,4.8-25.9,0L199.6,534c-7.6-4.6-12.2-12.8-12.2-21.6V287.6c0-8.9,4.6-17.1,12.2-21.6L387,153.6c4-2.4,8.5-3.6,13-3.6
		S409,151.2,413,153.6z"/>
	<g>
		<rect x="374" y="532.5" class="st1" width="54.2" height="10"/>
		<rect x="374" y="512.5" class="st1" width="54.2" height="10"/>
		<rect x="374" y="492.5" class="st1" width="54.2" height="10"/>
		<polygon class="st1" points="401.4,282.9 378.8,304.7 359.5,286.1 352.5,293.2 378.8,318.5 401.4,296.7 424.7,319.3 451.5,293.4 
			444.6,286.2 424.7,305.4 		"/>
		<polygon class="st1" points="310.3,284.9 303.2,291.9 374.4,363.1 374,470.1 384,470.1 384.3,358.9 		"/>
		<polygon class="st1" points="489.7,286.8 418.2,358.3 418.2,470.1 428.1,470.1 428.1,362.4 496.8,293.8 		"/>
	</g>
</g>
</svg>
