<svg xmlns="http://www.w3.org/2000/svg" viewBox="0 0 960 1168"><defs><style>.cls-1{fill:#153f4c;}.cls-2,.cls-3{fill:#b4bfd2;}.cls-2{stroke:#11313f;stroke-miterlimit:10;}.cls-4{fill:#fff;}.cls-5{fill:#cad7ea;}.cls-6{fill:#11313f;}</style></defs><g id="Camada_2" data-name="Camada 2"><g id="Kon"><path class="cls-1" d="M210,1140,170,991l10-455,70,375,30,28-40,87,80,70-60,44H380l40-44V951H540v145l40,44H700l-60-44,80-70-40-87,30-28,70-375,10,455-40,149h30c0,14.84,34.29,27,80,27s79.93-12.18,80-27l20-604-60-31h60L900,349,780,282,620,260l30-61-30-23-10-45L600,89,570,29,510,0H450L390,29,360,89l-10,42-10,45-30,23,30,61L180,282,60,349,0,505H60L0,536l20,604c0,14.84,34.29,27,80,27s80-12.16,80-27"/><path id="FaceBack" class="cls-2" d="M580.36,188.07c0-31.79-25-57.57-55.93-57.57a55.32,55.32,0,0,0-45,23.39,55.35,55.35,0,0,0-45-23.39c-30.89,0-55.93,25.78-55.93,57.57a57.76,57.76,0,0,0,30,51C400,249.16,395,261.13,395,274c0,35.63,38.06,64.51,85,64.51s85-28.88,85-64.51c0-13-5.11-25.17-13.88-35.31A57.83,57.83,0,0,0,580.36,188.07Z"/><path class="cls-3" d="M709,526.51c0-51.72-54.54-93.64-121.81-93.64-46.15,0-86.3,19.73-107,48.82-20.53-29.85-60.93-50.15-107.41-50.15-67.27,0-121.81,42.52-121.81,95,0,18.07,77.66,322,77.66,322H633.08S709,544.13,709,526.51Z"/><polyline class="cls-3" points="339 260 309 199 339 176"/><polyline class="cls-3" points="621 260 651 199 621 176"/><polyline class="cls-3" points="211 1140 181 1140 171 991"/><polyline class="cls-3" points="749 1140 779 1140 789 991"/><polygon class="cls-3" points="380 1140 260 1140 292.6 1116 401.69 1116 380 1140"/><path class="cls-3" d="M180,1141s0,27-80,27-80-27-80-27H180Z"/><path class="cls-3" d="M940,1141s0,27-80,27-80-27-80-27H940Z"/><polygon class="cls-3" points="579.69 1140 699.69 1140 667.09 1116 558 1116 579.69 1140"/><path id="Mouth" class="cls-4" d="M536.86,281.64c23.43,31.39-137.21,32.08-113.71.06"/><g id="Nose"><path class="cls-5" d="M494.52,208.44A27.66,27.66,0,0,0,480,212.35a27.66,27.66,0,0,0-14.52-3.91c-12.49,0-22.63,7.52-22.63,16.8S453,242,465.48,242A27.57,27.57,0,0,0,480,238.12,27.57,27.57,0,0,0,494.52,242c12.49,0,22.63-7.52,22.63-16.8S507,208.44,494.52,208.44Z"/><path class="cls-6" d="M470,225.48a10,10,0,1,1-10-10A10,10,0,0,1,470,225.48Z"/><path class="cls-6" d="M510.36,225.48a10,10,0,1,1-10-10A10,10,0,0,1,510.36,225.48Z"/></g><path id="BrowLeft" class="cls-6" d="M453,181.25c0,9.06-8.07,16.41-18,16.41s-18-7.35-18-16.41,8.07-16.42,18-16.42S453,172.18,453,181.25Z"/><path id="EyeLeft" d="M453,183.55C453,192.62,445,200,435,200s-18-7.35-18-16.42,8.07-16.41,18-16.41S453,174.49,453,183.55Z"/><path id="BrightEyeLeft" class="cls-4" d="M444.61,183.75a5.62,5.62,0,1,1-5.62-5.62A5.61,5.61,0,0,1,444.61,183.75Z"/><path id="BrowRight" class="cls-6" d="M543,181.25c0,9.06-8.07,16.41-18,16.41s-18-7.35-18-16.41,8.07-16.42,18-16.42S543,172.18,543,181.25Z"/><path id="EyeRight" d="M543,183.55C543,192.62,535,200,525,200s-18-7.35-18-16.42,8.07-16.41,18-16.41S543,174.49,543,183.55Z"/><path id="BrightEyeRight" class="cls-4" d="M534.61,183.75a5.62,5.62,0,1,1-5.62-5.62A5.61,5.61,0,0,1,534.61,183.75Z"/></g></g></svg>