<svg xmlns="http://www.w3.org/2000/svg" viewBox="0 0 489.95 576"><defs><style>.cls-1{fill:#fff;}</style></defs><g id="Camada_2" data-name="Camada 2"><g id="Camada_1-2" data-name="Camada 1"><path class="cls-1" d="M475.85,133.62,259.91,4.13a29.05,29.05,0,0,0-29.86,0L14.1,133.62A29,29,0,0,0,0,158.51v259a29,29,0,0,0,14.1,24.89l216,129.49a29,29,0,0,0,29.86,0L475.85,442.38A29,29,0,0,0,490,417.49v-259A29,29,0,0,0,475.85,133.62ZM198.28,156.73l22.24,21.48,26-25.13,26.91,26L296.37,157l8,8.26L273.46,195l-26.91-26-26,25.13L190.3,165Zm-56.65-1.32,85.3,85.29-.37,128-11.48,0,.35-123.27-81.91-81.92ZM277.51,452.17H215.08V440.69h62.43Zm0-23.07H215.08V417.62h62.43Zm0-23.07H215.08V394.55h62.43Zm-.12-161.29v124H265.91V240l82.41-82.41,8.12,8.12Z"/></g></g></svg>