<?xml version="1.0" encoding="utf-8"?>
<!-- Generator: Adobe Illustrator 24.2.0, SVG Export Plug-In . SVG Version: 6.00 Build 0)  -->
<svg version="1.1" id="Camada_1" xmlns="http://www.w3.org/2000/svg" xmlns:xlink="http://www.w3.org/1999/xlink" x="0px" y="0px"
	 viewBox="0 0 1080 1080" style="enable-background:new 0 0 1080 1080;" xml:space="preserve">
<style type="text/css">
	.st0{fill:#DDDDDD;}
	.st1{fill:#153F4C;}
	.st2{fill:#B4BFD2;stroke:#11313F;stroke-miterlimit:10;}
	.st3{fill:#B4BFD2;}
	.st4{fill:#FFFFFF;}
	.st5{fill:#CAD7EA;}
	.st6{fill:#11313F;}
</style>
<g id="background">
	<rect class="st0" width="1080" height="1080"/>
</g>
<g id="Camada_2_1_">
	<g id="Kon">
		<path class="st1" d="M331.4,969.6l-30.9-115.1l7.7-351.6l54.1,289.8l23.2,21.6l-30.9,67.2l61.8,54.1l-46.4,34h92.7l30.9-34v-112
			h92.7v112l30.9,34H710l-46.4-34l61.8-54.1l-30.9-67.2l23.2-21.6l54.1-289.8l7.7,351.6l-30.9,115.1h23.2
			c0,11.5,26.5,20.9,61.8,20.9c35.3,0,61.8-9.4,61.8-20.9l15.5-466.7l-46.4-24h46.4l-46.4-120.5l-92.7-51.8l-123.6-17l23.2-47.1
			l-23.2-17.8l-7.7-34.8l-7.7-32.5l-23.2-46.4l-46.4-22.4h-46.4l-46.4,22.4l-23.2,46.4l-7.7,32.5l-7.7,34.8l-23.2,17.8l23.2,47.1
			l-123.6,17l-92.7,51.8L169.1,479h46.4l-46.4,24l15.5,466.7c0,11.5,26.5,20.9,61.8,20.9s61.8-9.4,61.8-20.9"/>
		<path id="FaceBack" class="st2" d="M617.5,234.1c0-24.6-19.3-44.5-43.2-44.5c-13.8,0-26.8,6.8-34.8,18.1
			c-8-11.3-20.9-18-34.8-18.1c-23.9,0-43.2,19.9-43.2,44.5c-0.1,16.4,8.8,31.5,23.2,39.4c-6.6,7.8-10.4,17-10.4,27
			c0,27.5,29.4,49.8,65.7,49.8s65.7-22.3,65.7-49.8c0-10-3.9-19.4-10.7-27.3C609,265.2,617.6,250.2,617.5,234.1z"/>
		<path class="st3" d="M716.9,495.6c0-40-42.1-72.4-94.1-72.4c-35.7,0-66.7,15.2-82.7,37.7c-15.9-23.1-47.1-38.8-83-38.8
			c-52,0-94.1,32.9-94.1,73.4c0,14,60,248.8,60,248.8h235.2C658.3,744.4,716.9,509.2,716.9,495.6z"/>
		<polyline class="st3" points="431.1,289.6 407.9,242.5 431.1,224.7 		"/>
		<polyline class="st3" points="648.9,289.6 672.1,242.5 648.9,224.7 		"/>
		<polyline class="st3" points="332.1,969.6 309,969.6 301.2,854.5 		"/>
		<polyline class="st3" points="747.9,969.6 771,969.6 778.8,854.5 		"/>
		<polygon class="st3" points="462.7,969.6 370,969.6 395.2,951.1 479.5,951.1 		"/>
		<path class="st3" d="M308.2,970.4c0,0,0,20.9-61.8,20.9s-61.8-20.9-61.8-20.9H308.2z"/>
		<path class="st3" d="M895.4,970.4c0,0,0,20.9-61.8,20.9s-61.8-20.9-61.8-20.9H895.4z"/>
		<polygon class="st3" points="617,969.6 709.8,969.6 684.6,951.1 600.3,951.1 		"/>
		<path id="Mouth" class="st4" d="M583.9,306.4c18.1,24.3-106,24.8-87.9,0"/>
		<g id="Nose">
			<path class="st5" d="M551.2,249.8c-3.9,0-7.8,1-11.2,3c-3.4-2-7.3-3.1-11.2-3c-9.7,0-17.5,5.8-17.5,13s7.8,13,17.5,13
				c3.9,0.1,7.8-1,11.2-3c3.4,2,7.3,3.1,11.2,3c9.7,0,17.5-5.8,17.5-13S560.9,249.8,551.2,249.8z"/>
			<path class="st6" d="M532.3,263c0,4.3-3.5,7.7-7.7,7.7s-7.7-3.5-7.7-7.7s3.5-7.7,7.7-7.7S532.3,258.7,532.3,263z"/>
			<path class="st6" d="M563.5,263c0,4.3-3.5,7.7-7.7,7.7c-4.3,0-7.7-3.5-7.7-7.7s3.5-7.7,7.7-7.7C560,255.2,563.5,258.7,563.5,263z
				"/>
		</g>
		<path id="BrowLeft" class="st6" d="M519.1,228.8c0,7-6.2,12.7-13.9,12.7c-7.7,0-13.9-5.7-13.9-12.7c0-7,6.2-12.7,13.9-12.7
			C512.9,216.1,519.1,221.8,519.1,228.8z"/>
		<path id="EyeLeft" d="M519.1,230.6c0,7-6.2,12.7-13.9,12.7s-13.9-5.7-13.9-12.7c0-7,6.2-12.7,13.9-12.7
			C512.9,217.9,519.1,223.6,519.1,230.6z"/>
		<path id="BrightEyeLeft" class="st4" d="M512.7,230.7c0,2.4-1.9,4.3-4.3,4.3c-2.4,0-4.3-1.9-4.3-4.3s1.9-4.3,4.3-4.3l0,0
			C510.7,226.4,512.7,228.3,512.7,230.7C512.7,230.7,512.7,230.7,512.7,230.7z"/>
		<path id="BrowRight" class="st6" d="M588.7,228.8c0,7-6.2,12.7-13.9,12.7s-13.9-5.7-13.9-12.7c0-7,6.2-12.7,13.9-12.7
			S588.7,221.8,588.7,228.8z"/>
		<path id="EyeRight" d="M588.7,230.6c0,7-6.2,12.7-13.9,12.7s-13.9-5.7-13.9-12.7c0-7,6.2-12.7,13.9-12.7S588.7,223.6,588.7,230.6z
			"/>
		<path id="BrightEyeRight" class="st4" d="M582.2,230.7c0,2.4-1.9,4.3-4.3,4.3c-2.4,0-4.3-1.9-4.3-4.3s1.9-4.3,4.3-4.3l0,0
			C580.2,226.4,582.2,228.3,582.2,230.7C582.2,230.7,582.2,230.7,582.2,230.7z"/>
	</g>
</g>
</svg>
