<?xml version="1.0" encoding="utf-8"?>
<!-- Generator: Adobe Illustrator 24.2.0, SVG Export Plug-In . SVG Version: 6.00 Build 0)  -->
<svg version="1.1" id="Camada_1" xmlns="http://www.w3.org/2000/svg" xmlns:xlink="http://www.w3.org/1999/xlink" x="0px" y="0px"
	 viewBox="0 0 540 540" style="enable-background:new 0 0 540 540;" xml:space="preserve">
<style type="text/css">
	.st0{fill:#414042;}
	.st1{opacity:0.1;fill:#FFFFFF;enable-background:new    ;}
	.st2{fill:#F1F3EE;}
	.st3{fill:#8E182F;}
	.st4{fill:#D61D46;}
	.st5{fill:#E4345B;}
	.st6{opacity:0.9;}
	.st7{fill:#FFFFFF;}
</style>
<g id="background">
	<rect width="540" height="540"/>
</g>
<g id="object">
	<g>
		<g>
			<polygon class="st0" points="176.7,486.3 114.2,486.3 114.2,289.1 176.8,289.2 			"/>
			<polygon class="st1" points="140,486.3 114.2,486.3 114.2,289.1 140.1,289.2 			"/>
			<path class="st2" d="M90.4,228.2c0,7.3-5.9,13.1-13.1,13.1h-35c-7.3,0-13.1-5.9-13.1-13.2v-30.8c0-7.3,5.9-13.1,13.1-13.1h35
				c7.3,0,13.1,5.9,13.1,13.1V228.2z"/>
			<g>
				<g>
					<path class="st3" d="M393.4,214.2c0,90.8-8.7,164.4-19.5,164.4c-10.7,0-19.4-73.6-19.4-164.4S363.2,49.8,374,49.8
						C384.7,49.8,393.4,123.4,393.4,214.2z"/>
				</g>
			</g>
			<path class="st4" d="M186,487.3c0,1.6-1.3,2.9-2.9,2.9h-75.2c-1.6,0-2.9-1.3-2.9-2.9v-9.6c0-1.6,1.3-2.9,2.9-2.9h75.2
				c1.6,0,2.9,1.3,2.9,2.9V487.3z"/>
			<path class="st4" d="M186,306c0,1.6-1.3,2.9-2.9,2.9h-75.2c-1.6,0-2.9-1.3-2.9-2.9v-9.6c0-1.6,1.3-2.9,2.9-2.9h75.2
				c1.6,0,2.9,1.3,2.9,2.9V306z"/>
			<path class="st2" d="M372.1,50.5c0,0-86,74-153.4,74c-36,0-30.1,0-30.1,0v172.6c0,0,3.8,0,26.7,0c74.9,0,156.9,81.5,156.9,81.5
				s-13.5-83.9-13.5-167.8C358.6,126.9,372.1,50.5,372.1,50.5z"/>
			<path class="st5" d="M115.2,124.4c-38.1,0-69,30.9-69.1,69v34.5c0,38.1,30.9,69.1,69,69.1h74.5V124.4H115.2z"/>
			<path class="st0" d="M401.8,210.9c0-23.1-18.1-42-41-43.2c-3.1,28.5-4.4,57.8-1.7,86.5C382.8,253.8,401.8,234.6,401.8,210.9z"/>
			<path class="st5" d="M374,95.2c0.5,4.3,1.1,9,1.6,14.3c2.9,29.1,4.5,66.3,4.5,104.6s-1.6,75.5-4.5,104.6
				c-0.5,5.3-1.1,10.1-1.6,14.3c-0.5-4.3-1.1-9-1.6-14.3c-2.9-29.1-4.5-66.3-4.5-104.6s1.6-75.5,4.5-104.6
				C372.9,104.2,373.4,99.5,374,95.2 M375.5,50.3c-0.5-0.4-1-0.5-1.6-0.5c-10.7,0-19.4,73.6-19.5,164.4c0,86.3,7.8,157.1,17.8,163.9
				c0.5,0.3,1,0.5,1.6,0.5c10.7,0,19.4-73.6,19.5-164.4C393.4,127.9,385.5,57.1,375.5,50.3L375.5,50.3z"/>
			<path class="st0" d="M401.8,210.9c0-18.5-11.6-34.2-27.8-40.4c1.1,27.2,0.9,53.9-0.2,80.9C390.2,245.2,401.8,229.4,401.8,210.9z"
				/>
			<rect x="176.8" y="357.3" class="st2" width="15.8" height="39"/>
			<path class="st5" d="M379.1,295.9c-0.6,8.4-1.2,16.3-2,23.7c-1,10.3-2.1,18.5-3.2,25.1c-1-6.6-2.1-14.8-3.2-25.1
				c-2.9-29.3-4.6-66.8-4.6-105.5s1.6-76.2,4.6-105.5c1-10.3,2.1-18.5,3.2-25.1c0.3,1.9,0.6,4,0.9,6.3c1.6-6.5,4.1-12.7,8.9-17.4
				c-2.9-14.4-6.3-22.7-9.9-22.7c-10.7,0-19.4,73.6-19.5,164.4c0,90.8,8.7,164.4,19.4,164.4c6.7,0,12.5-28.3,16.1-71.5L379.1,295.9z
				"/>
		</g>
		<g class="st6">
			<path class="st7" d="M409,153.8c0,0,0.5,0.3,1.4,0.8s2.3,1.2,4,2.3c0.8,0.5,1.8,1.1,2.8,1.8c1,0.7,2,1.5,3.1,2.3
				c1.1,0.9,2.2,1.9,3.4,2.9s2.3,2.3,3.5,3.5c1.2,1.3,2.4,2.6,3.6,4.1c1.1,1.5,2.4,3,3.5,4.7c2.3,3.3,4.3,7.1,6.1,11.1
				c0.4,1,0.8,2.1,1.3,3.1c0.4,1,0.7,2.1,1.1,3.2c0.8,2.2,1.3,4.4,1.8,6.7c1,4.6,1.4,9.3,1.5,14.1l-0.1,3.5c0,1-0.2,2.3-0.3,3.5
				c-0.2,2.5-0.7,4.8-1.1,7.1c-0.5,2.3-1,4.5-1.8,6.7c-0.4,1.1-0.7,2.2-1.1,3.2c-0.4,1.1-0.8,2.1-1.3,3.1c-1.8,4-3.8,7.8-6.1,11.1
				c-1.1,1.7-2.3,3.2-3.5,4.7c-1.2,1.4-2.4,2.8-3.6,4.1c-1.2,1.2-2.4,2.4-3.5,3.5c-1.2,1-2.3,2-3.4,2.9c-1.1,0.8-2.1,1.6-3.1,2.3
				c-1,0.7-1.9,1.3-2.8,1.8c-1.6,1.1-3.1,1.8-4,2.3s-1.4,0.7-1.4,0.7s0.4-0.4,1-1.2c0.7-0.8,1.7-1.9,2.9-3.5c0.6-0.7,1.3-1.6,2-2.5
				s1.4-1.9,2.2-3s1.6-2.2,2.4-3.4c0.8-1.2,1.6-2.5,2.5-3.9c0.8-1.4,1.7-2.8,2.5-4.3s1.7-3,2.4-4.7c1.6-3.2,2.9-6.8,4.2-10.4
				c1.2-3.7,2.1-7.6,2.8-11.5c0.3-2,0.6-4,0.7-5.9c0.1-1,0.2-1.9,0.2-3l0.1-3.1c0-4.1-0.4-8.1-0.9-12.1c-0.7-4-1.6-7.8-2.8-11.5
				s-2.5-7.2-4.1-10.4c-0.7-1.7-1.6-3.2-2.4-4.7c-0.8-1.5-1.7-2.9-2.5-4.3c-0.9-1.3-1.7-2.7-2.5-3.9c-0.9-1.2-1.7-2.4-2.4-3.4
				c-0.8-1.1-1.5-2.1-2.2-3s-1.4-1.7-2-2.5c-1.2-1.5-2.2-2.7-2.9-3.5C409.4,154.3,409,153.8,409,153.8z"/>
			<path class="st7" d="M409,119.8c0,0,0.9,0.3,2.5,1c0.8,0.3,1.8,0.7,3,1.2c0.6,0.2,1.2,0.5,1.9,0.8s1.4,0.7,2.1,1
				c1.5,0.7,3.2,1.6,5,2.5c1.7,1,3.6,2.1,5.6,3.3c1,0.6,2,1.3,3,2s2.1,1.4,3.2,2.2c1.1,0.7,2.1,1.6,3.2,2.4c1.1,0.9,2.2,1.8,3.3,2.7
				c1.2,0.9,2.2,2,3.3,3s2.2,2.1,3.4,3.2c1.1,1.1,2.2,2.3,3.3,3.5c0.6,0.6,1.1,1.2,1.7,1.8c0.5,0.6,1,1.3,1.6,1.9
				c1,1.3,2.1,2.6,3.2,4c1,1.4,2,2.9,3,4.3c0.5,0.7,1,1.5,1.5,2.2c0.4,0.8,0.9,1.5,1.4,2.3c0.9,1.6,1.8,3.1,2.7,4.8
				c1.6,3.3,3.3,6.7,4.6,10.3c1.5,3.5,2.5,7.3,3.5,11c0.8,3.8,1.8,7.6,2.1,11.6c0.2,2,0.5,3.9,0.6,5.9l0.2,6.2
				c-0.1,7.2-1.1,15.8-2.9,23.2c-1.1,3.7-2.1,7.5-3.6,11c-1.3,3.6-3,7-4.6,10.3c-0.9,1.6-1.8,3.2-2.7,4.8c-0.5,0.8-0.9,1.6-1.4,2.3
				c-0.5,0.7-1,1.5-1.5,2.2c-1,1.5-2,2.9-3,4.3c-1.1,1.3-2.1,2.7-3.2,4c-0.5,0.7-1,1.3-1.6,1.9s-1.1,1.2-1.7,1.8
				c-1.1,1.2-2.2,2.4-3.3,3.5s-2.3,2.1-3.4,3.2c-0.5,0.5-1.1,1-1.6,1.5s-1.1,1-1.7,1.4c-1.1,0.9-2.2,1.8-3.3,2.7
				c-1.1,0.9-2.1,1.7-3.2,2.4c-1.1,0.7-2.1,1.5-3.2,2.2c-1,0.7-2,1.4-3,2c-2,1.2-3.9,2.3-5.6,3.3c-1.8,0.9-3.5,1.7-4.9,2.4
				c-0.7,0.4-1.5,0.7-2.1,1c-0.7,0.3-1.3,0.5-1.9,0.8c-1.2,0.5-2.2,0.9-3,1.2c-1.6,0.6-2.5,1-2.5,1s0.8-0.5,2.2-1.5
				c0.7-0.5,1.6-1.1,2.7-1.8c0.5-0.4,1.1-0.7,1.7-1.2c0.6-0.4,1.2-0.9,1.9-1.4c1.3-1,2.7-2.1,4.3-3.2c1.5-1.3,3.1-2.6,4.9-4.1
				c1.7-1.4,3.4-3.1,5.3-4.8c0.9-0.8,1.8-1.8,2.7-2.7c0.9-0.9,1.8-1.9,2.8-2.9s1.8-2.1,2.8-3.1c0.9-1.1,1.9-2.2,2.8-3.3
				c0.9-1.2,1.8-2.4,2.7-3.6c0.5-0.6,0.9-1.2,1.4-1.8c0.4-0.6,0.9-1.3,1.3-1.9c0.9-1.3,1.7-2.6,2.6-3.9c0.8-1.4,1.6-2.8,2.4-4.2
				c0.4-0.7,0.8-1.4,1.2-2.1s0.7-1.5,1.1-2.2c0.7-1.5,1.5-2.9,2.2-4.5c2.7-6.1,4.9-12.7,6.5-19.4c1.4-7,2.2-13.3,2.3-21.2
				c0,0.4,0,0.1,0,0.1v-0.1v-0.2V214v-0.7V212l-0.1-2.6c0-1.8-0.3-3.5-0.5-5.3c-0.3-3.5-1-6.9-1.6-10.4c-1.6-6.8-3.8-13.3-6.5-19.4
				c-0.7-1.5-1.5-3-2.2-4.5c-0.4-0.7-0.7-1.5-1.1-2.2c-0.4-0.7-0.8-1.4-1.2-2.1c-0.8-1.4-1.6-2.8-2.4-4.2c-0.9-1.3-1.8-2.6-2.6-3.9
				c-0.4-0.6-0.8-1.3-1.3-1.9s-0.9-1.2-1.4-1.8c-0.9-1.2-1.8-2.4-2.7-3.6c-0.9-1.1-1.9-2.2-2.8-3.3c-0.9-1.1-1.8-2.2-2.8-3.1
				c-1-1-1.9-2-2.8-2.9c-0.9-0.9-1.8-1.9-2.7-2.7c-1.9-1.7-3.6-3.4-5.3-4.8s-3.4-2.8-4.9-4.1c-1.6-1.2-3-2.2-4.3-3.2
				c-0.7-0.5-1.3-1-1.9-1.4c-0.6-0.4-1.2-0.8-1.7-1.2c-1.1-0.7-2-1.3-2.7-1.8C409.8,120.3,409,119.8,409,119.8z"/>
			<path class="st7" d="M409,87.6c0,0,1.3,0.4,3.7,1.1c1.2,0.3,2.7,0.8,4.4,1.4c0.9,0.3,1.8,0.6,2.8,0.9c1,0.4,2,0.8,3.1,1.2
				c2.2,0.8,4.6,1.9,7.2,3c2.6,1.2,5.3,2.5,8.2,4.1c5.8,3.1,12.1,6.9,18.7,11.7c3.3,2.4,6.5,5.1,9.8,8s6.5,6.1,9.7,9.5
				c6.4,6.8,12.4,14.8,17.6,23.7c5.1,8.9,9.4,18.8,12.3,29.3c1.4,5.2,2.6,10.6,3.3,16.1s1.1,11,1.2,16.5v0.3v0.4v0.5v1v2
				c0,0.7,0,1.3-0.1,2l-0.1,2.1c-0.1,2.8-0.5,5.6-0.8,8.3c-0.7,5.5-1.8,10.8-3.2,16.1c-1.4,5.2-3.2,10.3-5.2,15.3
				c-2.1,4.9-4.4,9.6-6.9,14.1c-5.1,8.9-11.1,16.9-17.4,23.8c-3.1,3.5-6.4,6.6-9.7,9.6c-3.3,2.9-6.5,5.6-9.8,8
				c-6.5,4.9-12.8,8.7-18.6,11.8c-2.9,1.6-5.6,2.9-8.2,4.1c-2.6,1.1-4.9,2.2-7.1,3c-1.1,0.4-2.1,0.8-3.1,1.2c-1,0.3-1.9,0.7-2.8,1
				c-1.7,0.6-3.2,1.1-4.4,1.4c-2.4,0.7-3.7,1.1-3.7,1.1s1.2-0.6,3.4-1.7c1.1-0.5,2.5-1.2,4.1-2.1c0.8-0.4,1.6-0.9,2.6-1.3
				c0.9-0.5,1.9-1,2.9-1.6c2-1.1,4.2-2.4,6.6-3.8c2.3-1.5,4.9-3,7.5-4.9c5.2-3.6,10.9-8,16.7-13.2s11.7-11.2,17.2-18.1
				c5.6-6.8,10.7-14.6,15.1-23.1c2.2-4.3,4.2-8.7,5.9-13.2c1.7-4.6,3.2-9.3,4.5-14.1c1.2-4.8,2.1-9.8,2.7-14.8
				c0.3-2.5,0.6-5,0.7-7.5l0.1-1.8c0-0.6,0-1.3,0-2v-2v-1v-0.5v-0.4c0-5.1-0.4-10.1-1-15.1c-0.7-5-1.6-9.9-2.8-14.7
				c-1.3-4.8-2.8-9.5-4.5-14.1c-1.8-4.6-3.8-8.9-6-13.2c-2.3-4.2-4.7-8.3-7.2-12.1c-2.6-3.8-5.3-7.5-8.1-10.9
				c-5.6-6.9-11.5-12.8-17.3-18c-5.8-5.1-11.5-9.5-16.8-13.1c-2.6-1.8-5.2-3.3-7.5-4.8c-2.4-1.4-4.6-2.7-6.6-3.8
				c-1-0.6-2-1.1-2.9-1.6s-1.8-0.9-2.6-1.3c-1.6-0.8-3-1.5-4.1-2C410.2,88.2,409,87.6,409,87.6z"/>
		</g>
	</g>
</g>
</svg>
